<svg width="253" height="75" viewBox="0 0 253 75" fill="none" xmlns="http://www.w3.org/2000/svg">
<g id="Group">
<path id="Vector" d="M250.395 65.8694C250.395 66.8094 250.21 67.7402 249.849 68.6085C249.489 69.4769 248.962 70.2658 248.297 70.9301C247.631 71.5944 246.842 72.1212 245.973 72.4802C245.104 72.8393 244.173 73.0236 243.232 73.0226H8.83451C6.93471 73.0246 5.1119 72.2721 3.76696 70.9307C2.42202 69.5892 1.66507 67.7687 1.6626 65.8694V8.8249C1.66507 6.92474 2.42172 5.10322 3.76639 3.76031C5.11106 2.41739 6.93385 1.66285 8.83451 1.66235H243.23C244.171 1.66235 245.103 1.84763 245.972 2.20761C246.841 2.56758 247.631 3.0952 248.296 3.76033C248.961 4.42546 249.488 5.21506 249.848 6.08405C250.208 6.95304 250.393 7.88439 250.393 8.8249L250.395 65.8694Z" fill="white"/>
<path id="Vector_2" d="M243.232 74.6866H8.83459C6.49425 74.6861 4.24969 73.7574 2.59341 72.1044C0.937143 70.4514 0.00445303 68.209 0 65.8693L0 8.82665C0.0034622 6.48577 0.935537 4.24184 2.59175 2.58711C4.24797 0.932379 6.49309 0.00197579 8.83459 0L243.231 0C245.572 0.00296166 247.816 0.933682 249.472 2.5882C251.128 4.24271 252.061 6.48607 252.065 8.82665V65.8693C252.069 70.7327 248.099 74.6866 243.232 74.6866Z" fill="#A6A6A6"/>
<path id="Vector_3" d="M250.395 65.8694C250.395 66.8094 250.21 67.7402 249.849 68.6085C249.489 69.4769 248.962 70.2658 248.297 70.9301C247.631 71.5944 246.842 72.1212 245.973 72.4802C245.104 72.8393 244.173 73.0236 243.232 73.0226H8.83451C6.93471 73.0246 5.1119 72.2721 3.76696 70.9307C2.42202 69.5892 1.66507 67.7687 1.6626 65.8694V8.8249C1.66507 6.92474 2.42172 5.10322 3.76639 3.76031C5.11106 2.41739 6.93385 1.66285 8.83451 1.66235H243.23C244.171 1.66235 245.103 1.84763 245.972 2.20761C246.841 2.56758 247.631 3.0952 248.296 3.76033C248.961 4.42546 249.488 5.21506 249.848 6.08405C250.208 6.95304 250.393 7.88439 250.393 8.8249L250.395 65.8694Z" fill="black"/>
<path id="Vector_4" d="M56.2843 36.9502C56.2301 30.9307 61.2144 28.0022 61.4423 27.8659C58.6195 23.7514 54.2442 23.1892 52.7067 23.1444C49.032 22.7578 45.4675 25.3426 43.5956 25.3426C41.6863 25.3426 38.8038 23.1817 35.697 23.2452C31.6991 23.3069 27.959 25.6209 25.9078 29.2143C21.6745 36.5412 24.8317 47.3084 28.8875 53.2308C30.9163 56.1332 33.287 59.3698 36.3901 59.2559C39.4259 59.1326 40.5598 57.3229 44.2233 57.3229C47.8532 57.3229 48.918 59.2559 52.0827 59.1831C55.3408 59.1327 57.3921 56.2695 59.3499 53.3429C61.6945 50.0203 62.636 46.7443 62.6734 46.5763C62.5987 46.5501 56.3478 44.1632 56.2843 36.9502ZM50.3061 19.2484C51.9389 17.207 53.056 14.4298 52.7459 11.6115C50.3827 11.716 47.4272 13.2457 45.7253 15.2422C44.2196 17.0016 42.8745 19.8853 43.222 22.5971C45.8767 22.7951 48.6023 21.258 50.3061 19.2484Z" fill="white"/>
<path id="Vector_5" d="M243.232 0H117.682L166.858 74.6866H243.232C245.573 74.6846 247.818 73.7547 249.474 72.1008C251.13 70.4469 252.062 68.2039 252.067 65.8637V8.82665C252.063 6.48592 251.131 4.24227 249.475 2.58765C247.818 0.933031 245.574 0.00246892 243.232 0Z" fill="url(#paint0_linear_747_1701)"/>
<path id="Vector_6" d="M100.255 58.8394H96.0127L93.6887 51.5387H85.6107L83.3969 58.8394H79.2664L87.2715 33.9844H92.2147L100.255 58.8394ZM92.9881 48.4757L90.8865 41.9855C90.6641 41.3225 90.2457 39.7611 89.6329 37.3032H89.5582C89.3116 38.3604 88.9174 39.9217 88.3775 41.9855L86.3113 48.4757H92.9881ZM120.802 49.6579C120.802 52.706 119.974 55.1153 118.317 56.884C116.834 58.4584 114.99 59.2447 112.791 59.2447C110.416 59.2447 108.709 58.3987 107.672 56.7028V66.1066H103.689V46.8079C103.689 44.8935 103.639 42.9306 103.541 40.9172H107.044L107.267 43.7579H107.341C108.67 41.6176 110.685 40.5474 113.39 40.5474C115.505 40.5474 117.271 41.3823 118.683 43.0538C120.093 44.7291 120.802 46.9293 120.802 49.6579ZM116.744 49.8036C116.744 48.0592 116.352 46.6211 115.563 45.4874C114.702 44.3089 113.546 43.7187 112.096 43.7187C111.113 43.7187 110.22 44.0474 109.422 44.6955C108.623 45.3492 108.1 46.2027 107.855 47.2598C107.746 47.6552 107.684 48.062 107.67 48.472V51.4621C107.67 52.7639 108.07 53.864 108.869 54.7642C109.669 55.6607 110.708 56.1108 111.986 56.1108C113.486 56.1108 114.653 55.5299 115.488 54.3776C116.325 53.2215 116.744 51.6974 116.744 49.8036ZM141.421 49.6579C141.421 52.706 140.593 55.1153 138.936 56.884C137.451 58.4584 135.609 59.2447 133.408 59.2447C131.033 59.2447 129.326 58.3987 128.289 56.7028V66.1066H124.306V46.8079C124.306 44.8935 124.256 42.9306 124.159 40.9172H127.661L127.884 43.7579H127.958C129.285 41.6176 131.301 40.5474 134.008 40.5474C136.121 40.5474 137.886 41.3823 139.302 43.0538C140.711 44.7291 141.421 46.9293 141.421 49.6579ZM137.361 49.8036C137.361 48.0592 136.967 46.6211 136.178 45.4874C135.317 44.3089 134.165 43.7187 132.715 43.7187C131.732 43.7187 130.839 44.0474 130.038 44.6955C129.238 45.3492 128.717 46.2027 128.472 47.2598C128.351 47.7529 128.285 48.1545 128.285 48.472V51.4621C128.285 52.7639 128.687 53.864 129.483 54.7642C130.282 55.6588 131.321 56.1108 132.603 56.1108C134.105 56.1108 135.272 55.5299 136.106 54.3776C136.943 53.2215 137.361 51.6974 137.361 49.8036ZM164.474 51.8674C164.474 53.9835 163.734 55.7036 162.264 57.0315C160.646 58.4808 158.387 59.2074 155.492 59.2074C152.816 59.2074 150.672 58.6919 149.054 57.6591L149.975 54.3402C151.722 55.3749 153.64 55.8904 155.729 55.8904C157.231 55.8904 158.398 55.5505 159.232 54.8762C160.067 54.2001 160.489 53.2962 160.489 52.1681C160.489 51.1577 160.14 50.3116 159.454 49.6225C158.765 48.9351 157.625 48.2945 156.024 47.7062C151.671 46.0832 149.493 43.7094 149.493 40.5866C149.493 38.5471 150.263 36.8774 151.798 35.5719C153.334 34.2683 155.37 33.6165 157.903 33.6165C160.166 33.6165 162.051 34.0105 163.547 34.7968L162.548 38.0428C161.139 37.2808 159.549 36.8998 157.771 36.8998C156.366 36.8998 155.264 37.2454 154.475 37.9327C153.812 38.5471 153.476 39.2961 153.476 40.1851C153.476 41.1656 153.859 41.9799 154.621 42.6187C155.282 43.207 156.489 43.8476 158.234 44.5349C160.375 45.3978 161.948 46.4026 162.955 47.5568C163.969 48.711 164.474 50.151 164.474 51.8674ZM177.676 43.9055H173.286V52.607C173.286 54.8202 174.059 55.924 175.61 55.924C176.322 55.924 176.912 55.8642 177.379 55.7391L177.489 58.7629C176.705 59.0561 175.672 59.2036 174.392 59.2036C172.819 59.2036 171.59 58.7236 170.702 57.7637C169.819 56.8037 169.374 55.1956 169.374 52.932V43.898H166.759V40.9097H169.374V37.6282L173.286 36.4479V40.9097H177.676V43.9055ZM197.445 49.7308C197.445 52.4856 196.657 54.7474 195.084 56.5161C193.438 58.337 191.248 59.2447 188.519 59.2447C185.885 59.2447 183.791 58.3725 182.229 56.63C180.667 54.8837 179.886 52.6836 179.886 50.0296C179.886 47.2524 180.693 44.9775 182.302 43.2088C183.914 41.4383 186.085 40.553 188.814 40.553C191.445 40.553 193.557 41.4271 195.157 43.1715C196.685 44.8636 197.445 47.0488 197.445 49.7308ZM193.316 49.8223C193.316 48.1806 192.962 46.7724 192.25 45.5939C191.415 44.1707 190.219 43.4591 188.67 43.4591C187.075 43.4591 185.851 44.1707 185.018 45.5939C184.304 46.7724 183.949 48.2049 183.949 49.897C183.949 51.5406 184.304 52.9525 185.018 54.1273C185.879 55.5505 187.081 56.262 188.637 56.262C190.159 56.262 191.353 55.5355 192.216 54.0918C192.948 52.8853 193.316 51.4677 193.316 49.8223ZM210.397 44.4191C209.983 44.3443 209.563 44.3075 209.142 44.3089C207.741 44.3089 206.657 44.8356 205.895 45.8964C205.234 46.8303 204.901 48.0106 204.901 49.4357V58.8394H200.918V46.5613C200.922 44.6799 200.883 42.7987 200.802 40.9191H204.271L204.417 44.3481H204.527C204.95 43.1696 205.611 42.219 206.519 41.5074C207.35 40.8856 208.36 40.5489 209.398 40.5474C209.766 40.5474 210.098 40.5736 210.393 40.6202L210.397 44.4191ZM228.21 49.0304C228.22 49.6357 228.172 50.2406 228.065 50.8364H216.116C216.161 52.607 216.74 53.9629 217.849 54.8968C218.856 55.7298 220.158 56.1481 221.758 56.1481C223.527 56.1481 225.141 55.868 226.592 55.3021L227.216 58.0644C225.52 58.804 223.517 59.1719 221.206 59.1719C218.427 59.1719 216.245 58.3538 214.657 56.7215C213.072 55.0873 212.278 52.8909 212.278 50.1398C212.278 47.4391 213.016 45.1886 214.494 43.3937C216.041 41.4775 218.131 40.5194 220.762 40.5194C223.346 40.5194 225.301 41.4775 226.63 43.3937C227.682 44.9122 228.21 46.7948 228.21 49.0304ZM224.412 47.9976C224.44 46.8153 224.179 45.7974 223.639 44.9364C222.949 43.827 221.888 43.2742 220.467 43.2742C219.165 43.2742 218.103 43.814 217.296 44.8972C216.633 45.7582 216.239 46.7929 216.118 47.9938L224.412 47.9976Z" fill="white"/>
<path id="Vector_7" d="M84.462 25.197C83.3542 25.197 82.3958 25.1428 81.5981 25.0513V13.0346C82.7138 12.8623 83.8412 12.7774 84.9702 12.7806C89.5378 12.7806 91.6414 15.0275 91.6414 18.69C91.6414 22.9147 89.1567 25.197 84.462 25.197ZM85.1308 14.3215C84.5143 14.3215 83.9894 14.3588 83.5541 14.4485V23.5833C83.7895 23.6206 84.2416 23.6375 84.8768 23.6375C87.8696 23.6375 89.5733 21.9341 89.5733 18.7441C89.5733 15.8997 88.0321 14.3215 85.1308 14.3215ZM98.1968 25.2885C95.6225 25.2885 93.9542 23.3666 93.9542 20.7575C93.9542 18.0382 95.658 16.0995 98.3425 16.0995C100.88 16.0995 102.585 17.9298 102.585 20.6137C102.585 23.3666 100.827 25.2885 98.1968 25.2885ZM98.2716 17.5301C96.8573 17.5301 95.9513 18.8525 95.9513 20.7015C95.9513 22.515 96.876 23.8373 98.2529 23.8373C99.6297 23.8373 100.554 22.4235 100.554 20.6641C100.554 18.8711 99.6484 17.5301 98.2716 17.5301ZM117.265 16.2807L114.51 25.0886H112.714L111.573 21.2636C111.289 20.328 111.053 19.3786 110.865 18.4192H110.828C110.684 19.3791 110.411 20.341 110.121 21.2636L108.907 25.0886H107.093L104.5 16.2807H106.512L107.51 20.468C107.745 21.4653 107.943 22.4067 108.107 23.2957H108.145C108.289 22.5542 108.524 21.6278 108.87 20.4867L110.121 16.2825H111.717L112.914 20.397C113.204 21.3944 113.439 22.373 113.622 23.2975H113.675C113.802 22.3917 114.002 21.4299 114.272 20.397L115.343 16.2825L117.265 16.2807ZM127.409 25.0886H125.452V20.031C125.452 18.4733 124.854 17.6926 123.675 17.6926C122.515 17.6926 121.717 18.69 121.717 19.8498V25.0886H119.759V18.7983C119.759 18.0195 119.741 17.1846 119.686 16.2788H121.409L121.5 17.6385H121.555C122.081 16.6972 123.15 16.0995 124.347 16.0995C126.197 16.0995 127.411 17.5133 127.411 19.8143L127.409 25.0886ZM132.808 25.0886H130.849V12.239H132.808V25.0886ZM139.947 25.2885C137.374 25.2885 135.704 23.3666 135.704 20.7575C135.704 18.0382 137.408 16.0995 140.091 16.0995C142.629 16.0995 144.333 17.9298 144.333 20.6137C144.335 23.3666 142.575 25.2885 139.947 25.2885ZM140.02 17.5301C138.605 17.5301 137.699 18.8525 137.699 20.7015C137.699 22.515 138.626 23.8373 139.999 23.8373C141.378 23.8373 142.301 22.4235 142.301 20.6641C142.303 18.8711 141.398 17.5301 140.02 17.5301ZM152.052 25.0886L151.911 24.0745H151.858C151.26 24.8907 150.388 25.2885 149.282 25.2885C147.703 25.2885 146.582 24.1828 146.582 22.6961C146.582 20.5222 148.467 19.3978 151.731 19.3978V19.2353C151.731 18.0755 151.117 17.4947 149.902 17.4947C149.034 17.4947 148.271 17.7132 147.601 18.1483L147.203 16.8615C148.017 16.3535 149.034 16.0995 150.227 16.0995C152.529 16.0995 153.691 17.3135 153.691 19.7433V22.9875C153.691 23.8765 153.73 24.5657 153.818 25.0905L152.052 25.0886ZM151.783 20.7015C149.609 20.7015 148.518 21.2281 148.518 22.4776C148.518 23.4021 149.08 23.8541 149.861 23.8541C150.857 23.8541 151.783 23.094 151.783 22.0611V20.7015ZM163.198 25.0886L163.106 23.6748H163.052C162.49 24.7431 161.545 25.2885 160.224 25.2885C158.1 25.2885 156.527 23.4208 156.527 20.793C156.527 18.0382 158.158 16.0976 160.385 16.0976C161.563 16.0976 162.398 16.4955 162.869 17.2948H162.908V12.239H164.868V22.7148C164.868 23.5665 164.889 24.364 164.941 25.0886H163.198ZM162.908 19.9058C162.908 18.6732 162.092 17.6217 160.846 17.6217C159.394 17.6217 158.507 18.9085 158.507 20.7201C158.507 22.4963 159.428 23.7122 160.807 23.7122C162.038 23.7122 162.908 22.642 162.908 21.3738V19.9058ZM177.293 25.2885C174.721 25.2885 173.053 23.3666 173.053 20.7575C173.053 18.0382 174.756 16.0995 177.439 16.0995C179.978 16.0995 181.682 17.9298 181.682 20.6137C181.684 23.3666 179.926 25.2885 177.293 25.2885ZM177.366 17.5301C175.954 17.5301 175.048 18.8525 175.048 20.7015C175.048 22.515 175.973 23.8373 177.348 23.8373C178.726 23.8373 179.649 22.4235 179.649 20.6641C179.653 18.8711 178.747 17.5301 177.366 17.5301ZM192.211 25.0886H190.251V20.031C190.251 18.4733 189.653 17.6926 188.474 17.6926C187.314 17.6926 186.518 18.69 186.518 19.8498V25.0886H184.559V18.7983C184.559 18.0195 184.54 17.1846 184.486 16.2788H186.208L186.3 17.6385H186.354C186.879 16.6972 187.949 16.0976 189.145 16.0976C190.995 16.0976 192.211 17.5115 192.211 19.8124V25.0886ZM205.383 17.7487H203.229V22.0256C203.229 23.1145 203.607 23.658 204.369 23.658C204.714 23.658 205.004 23.6206 205.238 23.5665L205.292 25.0532C204.912 25.1988 204.404 25.2717 203.773 25.2717C202.23 25.2717 201.307 24.42 201.307 22.19V17.7487H200.022V16.2807H201.307V14.667L203.229 14.0861V16.2788H205.383V17.7487ZM215.748 25.0886H213.792V20.0683C213.792 18.492 213.196 17.6945 212.015 17.6945C211.001 17.6945 210.056 18.3837 210.056 19.7788V25.0886H208.1V12.239H210.056V17.5301H210.095C210.711 16.5702 211.604 16.0976 212.744 16.0976C214.608 16.0976 215.748 17.547 215.748 19.8498V25.0886ZM226.367 21.1553H220.491C220.529 22.8231 221.633 23.7645 223.267 23.7645C224.136 23.7645 224.936 23.6188 225.642 23.348L225.946 24.7076C225.113 25.07 224.132 25.2511 222.991 25.2511C220.235 25.2511 218.604 23.5105 218.604 20.8117C218.604 18.111 220.274 16.0808 222.77 16.0808C225.021 16.0808 226.434 17.7487 226.434 20.2682C226.446 20.5655 226.424 20.8633 226.367 21.1553ZM224.571 19.7602C224.571 18.4005 223.886 17.4405 222.634 17.4405C221.509 17.4405 220.62 18.4192 220.493 19.7602H224.571Z" fill="white"/>
</g>
<defs>
<linearGradient id="paint0_linear_747_1701" x1="184.872" y1="74.8849" x2="184.872" y2="-194.471" gradientUnits="userSpaceOnUse">
<stop stop-color="#1A1A1A" stop-opacity="0.1"/>
<stop offset="0.123" stop-color="#212121" stop-opacity="0.151"/>
<stop offset="0.308" stop-color="#353535" stop-opacity="0.227"/>
<stop offset="0.532" stop-color="#575757" stop-opacity="0.318"/>
<stop offset="0.783" stop-color="#858585" stop-opacity="0.421"/>
<stop offset="1" stop-color="#B3B3B3" stop-opacity="0.51"/>
</linearGradient>
</defs>
</svg>
