<svg width="253" height="75" viewBox="0 0 253 75" fill="none" xmlns="http://www.w3.org/2000/svg">
<g id="Group 2">
<path id="Vector" d="M243.267 74.6757H9.93331C4.70664 74.6757 0.599976 70.569 0.599976 65.3424V9.34237C0.599976 4.1157 4.70664 0.0090332 9.93331 0.0090332H243.267C248.493 0.0090332 252.6 4.1157 252.6 9.34237V65.3424C252.6 70.569 248.493 74.6757 243.267 74.6757Z" fill="black"/>
<path id="Vector_2" d="M243.267 1.50237C247.56 1.50237 251.107 5.04903 251.107 9.34237V65.3424C251.107 69.6357 247.56 73.1824 243.267 73.1824H9.93331C5.63998 73.1824 2.09331 69.6357 2.09331 65.3424V9.34237C2.09331 5.04903 5.63998 1.50237 9.93331 1.50237H243.267ZM243.267 0.0090332H9.93331C4.70664 0.0090332 0.599976 4.30237 0.599976 9.34237V65.3424C0.599976 70.569 4.70664 74.6757 9.93331 74.6757H243.267C248.493 74.6757 252.6 70.569 252.6 65.3424V9.34237C252.6 4.30237 248.493 0.0090332 243.267 0.0090332Z" fill="#A6A6A6"/>
<path id="Vector_3" d="M89.08 19.0489C89.08 20.5422 88.7067 21.8489 87.7733 22.7822C86.6533 23.9022 85.3467 24.4622 83.6667 24.4622C81.9867 24.4622 80.68 23.9022 79.56 22.7822C78.44 21.6622 77.88 20.3556 77.88 18.6756C77.88 16.9956 78.44 15.6889 79.56 14.5689C80.68 13.4489 81.9867 12.8889 83.6667 12.8889C84.4133 12.8889 85.16 13.0756 85.9067 13.4489C86.6533 13.8222 87.2133 14.1956 87.5867 14.7556L86.6533 15.6889C85.9067 14.7556 84.9733 14.3822 83.6667 14.3822C82.5467 14.3822 81.4267 14.7556 80.68 15.6889C79.7467 16.4356 79.3733 17.5556 79.3733 18.8622C79.3733 20.1689 79.7467 21.2889 80.68 22.0356C81.6133 22.7822 82.5467 23.3422 83.6667 23.3422C84.9733 23.3422 85.9067 22.9689 86.84 22.0356C87.4 21.4756 87.7733 20.7289 87.7733 19.7956H83.6667V18.3022H89.08V19.0489ZM97.6667 14.3822H92.6267V17.9289H97.2933V19.2356H92.6267V22.7822H97.6667V24.2756H91.1333V13.0756H97.6667V14.3822ZM103.827 24.2756H102.333V14.3822H99.16V13.0756H107V14.3822H103.827V24.2756ZM112.413 24.2756V13.0756H113.907V24.2756H112.413ZM120.253 24.2756H118.76V14.3822H115.587V13.0756H123.24V14.3822H120.067V24.2756H120.253ZM137.987 22.7822C136.867 23.9022 135.56 24.4622 133.88 24.4622C132.2 24.4622 130.893 23.9022 129.773 22.7822C128.653 21.6622 128.093 20.3556 128.093 18.6756C128.093 16.9956 128.653 15.6889 129.773 14.5689C130.893 13.4489 132.2 12.8889 133.88 12.8889C135.56 12.8889 136.867 13.4489 137.987 14.5689C139.107 15.6889 139.667 16.9956 139.667 18.6756C139.667 20.3556 139.107 21.6622 137.987 22.7822ZM130.893 21.8489C131.64 22.5956 132.76 23.1556 133.88 23.1556C135 23.1556 136.12 22.7822 136.867 21.8489C137.613 21.1022 138.173 19.9822 138.173 18.6756C138.173 17.3689 137.8 16.2489 136.867 15.5022C136.12 14.7556 135 14.1956 133.88 14.1956C132.76 14.1956 131.64 14.5689 130.893 15.5022C130.147 16.2489 129.587 17.3689 129.587 18.6756C129.587 19.9822 129.96 21.1022 130.893 21.8489ZM141.72 24.2756V13.0756H143.4L148.813 21.8489V13.0756H150.307V24.2756H148.813L143.027 15.1289V24.2756H141.72Z" fill="white" stroke="white" stroke-width="0.373333" stroke-miterlimit="10"/>
<path id="Vector_4" d="M127.72 40.7023C123.24 40.7023 119.693 44.0623 119.693 48.729C119.693 53.209 123.24 56.7556 127.72 56.7556C132.2 56.7556 135.747 53.3956 135.747 48.729C135.747 43.8756 132.2 40.7023 127.72 40.7023ZM127.72 53.3956C125.293 53.3956 123.24 51.3423 123.24 48.5423C123.24 45.7423 125.293 43.689 127.72 43.689C130.147 43.689 132.2 45.5556 132.2 48.5423C132.2 51.3423 130.147 53.3956 127.72 53.3956ZM110.36 40.7023C105.88 40.7023 102.333 44.0623 102.333 48.729C102.333 53.209 105.88 56.7556 110.36 56.7556C114.84 56.7556 118.387 53.3956 118.387 48.729C118.387 43.8756 114.84 40.7023 110.36 40.7023ZM110.36 53.3956C107.933 53.3956 105.88 51.3423 105.88 48.5423C105.88 45.7423 107.933 43.689 110.36 43.689C112.787 43.689 114.84 45.5556 114.84 48.5423C114.84 51.3423 112.787 53.3956 110.36 53.3956ZM89.6401 43.129V46.489H97.6667C97.4801 48.3556 96.7334 49.849 95.8001 50.7823C94.6801 51.9023 92.8134 53.209 89.6401 53.209C84.6001 53.209 80.8667 49.289 80.8667 44.249C80.8667 39.209 84.7867 35.289 89.6401 35.289C92.2534 35.289 94.3067 36.409 95.8001 37.7156L98.2267 35.289C96.1734 33.4223 93.5601 31.929 89.8267 31.929C83.1067 31.929 77.3201 37.529 77.3201 44.249C77.3201 50.969 83.1067 56.569 89.8267 56.569C93.5601 56.569 96.1734 55.449 98.4134 53.0223C100.653 50.7823 101.4 47.609 101.4 45.1823C101.4 44.4356 101.4 43.689 101.213 43.129H89.6401ZM174.387 45.7423C173.64 43.8756 171.773 40.7023 167.667 40.7023C163.56 40.7023 160.2 43.8756 160.2 48.729C160.2 53.209 163.56 56.7556 168.04 56.7556C171.587 56.7556 173.827 54.5156 174.573 53.209L171.96 51.3423C171.027 52.649 169.907 53.5823 168.04 53.5823C166.173 53.5823 165.053 52.8356 164.12 51.1556L174.76 46.6756L174.387 45.7423ZM163.56 48.3556C163.56 45.369 165.987 43.689 167.667 43.689C168.973 43.689 170.28 44.4356 170.653 45.369L163.56 48.3556ZM154.787 56.009H158.333V32.6756H154.787V56.009ZM149.187 42.3823C148.253 41.449 146.76 40.5156 144.893 40.5156C140.973 40.5156 137.24 44.0623 137.24 48.5423C137.24 53.0223 140.787 56.3823 144.893 56.3823C146.76 56.3823 148.253 55.449 149 54.5156H149.187V55.6356C149.187 58.6223 147.507 60.3023 144.893 60.3023C142.84 60.3023 141.347 58.809 140.973 57.5023L137.987 58.809C138.92 60.8623 141.16 63.4756 145.08 63.4756C149.187 63.4756 152.547 61.049 152.547 55.2623V41.0756H149.187V42.3823ZM145.08 53.3956C142.653 53.3956 140.6 51.3423 140.6 48.5423C140.6 45.7423 142.653 43.689 145.08 43.689C147.507 43.689 149.373 45.7423 149.373 48.5423C149.373 51.3423 147.507 53.3956 145.08 53.3956ZM190.627 32.6756H182.227V56.009H185.773V47.2356H190.627C194.547 47.2356 198.28 44.4356 198.28 39.9556C198.28 35.4756 194.547 32.6756 190.627 32.6756ZM190.813 43.8756H185.773V35.849H190.813C193.427 35.849 194.92 38.089 194.92 39.769C194.733 41.8223 193.24 43.8756 190.813 43.8756ZM212.28 40.5156C209.667 40.5156 207.053 41.6356 206.12 44.0623L209.293 45.369C210.04 44.0623 211.16 43.689 212.467 43.689C214.333 43.689 216.013 44.809 216.2 46.6756V46.8623C215.64 46.489 214.147 45.929 212.653 45.929C209.293 45.929 205.933 47.7956 205.933 51.1556C205.933 54.329 208.733 56.3823 211.72 56.3823C214.147 56.3823 215.267 55.2623 216.2 54.1423H216.387V56.009H219.747V47.049C219.373 42.9423 216.2 40.5156 212.28 40.5156ZM211.907 53.3956C210.787 53.3956 209.107 52.8356 209.107 51.3423C209.107 49.4756 211.16 48.9156 212.84 48.9156C214.333 48.9156 215.08 49.289 216.013 49.6623C215.64 51.9023 213.773 53.3956 211.907 53.3956ZM231.507 41.0756L227.587 51.1556H227.4L223.293 41.0756H219.56L225.72 55.2623L222.173 63.1023H225.72L235.24 41.0756H231.507ZM200.147 56.009H203.693V32.6756H200.147V56.009Z" fill="white"/>
<g id="Group">
<path id="Vector_5" d="M20.0133 14.009C19.4533 14.569 19.2666 15.5024 19.2666 16.6224V57.8757C19.2666 58.9957 19.6399 59.929 20.1999 60.489L20.3866 60.6757L43.5333 37.529V37.1557L20.0133 14.009Z" fill="url(#paint0_linear_747_1711)"/>
<path id="Vector_6" d="M51 45.369L43.3467 37.7157V37.1557L51 29.5023L51.1867 29.689L60.3333 34.9157C62.9467 36.409 62.9467 38.8357 60.3333 40.329L51 45.369Z" fill="url(#paint1_linear_747_1711)"/>
<path id="Vector_7" d="M51.1867 45.1823L43.3467 37.3423L20.0133 60.6756C20.9467 61.6089 22.2533 61.6089 23.9333 60.8623L51.1867 45.1823Z" fill="url(#paint2_linear_747_1711)"/>
<path id="Vector_8" d="M51.1867 29.5023L23.9333 14.009C22.2533 13.0757 20.9467 13.2623 20.0133 14.1957L43.3467 37.3423L51.1867 29.5023Z" fill="url(#paint3_linear_747_1711)"/>
<path id="Vector_9" opacity="0.2" d="M51 44.9956L23.9333 60.3023C22.44 61.2356 21.1333 61.0489 20.2 60.3023L20.0133 60.4889L20.2 60.6756C21.1333 61.4223 22.44 61.6089 23.9333 60.6756L51 44.9956Z" fill="black"/>
<path id="Vector_10" opacity="0.12" d="M20.0133 60.3023C19.4533 59.7423 19.2666 58.809 19.2666 57.6889V57.8756C19.2666 58.9956 19.6399 59.929 20.1999 60.489V60.3023H20.0133ZM60.3333 39.769L50.9999 44.9956L51.1866 45.1823L60.3333 39.9556C61.6399 39.209 62.1999 38.2756 62.1999 37.3423C62.1999 38.2756 61.4533 39.0223 60.3333 39.769Z" fill="black"/>
<path id="Vector_11" opacity="0.25" d="M23.9333 14.1957L60.3333 34.9157C61.4533 35.6624 62.1999 36.409 62.1999 37.3424C62.1999 36.409 61.6399 35.4757 60.3333 34.729L23.9333 14.009C21.3199 12.5157 19.2666 13.6357 19.2666 16.6224V16.809C19.2666 14.009 21.3199 12.7024 23.9333 14.1957Z" fill="white"/>
</g>
</g>
<defs>
<linearGradient id="paint0_linear_747_1711" x1="41.2933" y1="16.2677" x2="9.965" y2="47.5941" gradientUnits="userSpaceOnUse">
<stop stop-color="#00A0FF"/>
<stop offset="0.007" stop-color="#00A1FF"/>
<stop offset="0.26" stop-color="#00BEFF"/>
<stop offset="0.512" stop-color="#00D2FF"/>
<stop offset="0.76" stop-color="#00DFFF"/>
<stop offset="1" stop-color="#00E3FF"/>
</linearGradient>
<linearGradient id="paint1_linear_747_1711" x1="63.7568" y1="37.3442" x2="18.5891" y2="37.3442" gradientUnits="userSpaceOnUse">
<stop stop-color="#FFE000"/>
<stop offset="0.409" stop-color="#FFBD00"/>
<stop offset="0.775" stop-color="#FFA500"/>
<stop offset="1" stop-color="#FF9C00"/>
</linearGradient>
<linearGradient id="paint2_linear_747_1711" x1="46.9437" y1="41.6282" x2="4.46214" y2="84.1098" gradientUnits="userSpaceOnUse">
<stop stop-color="#FF3A44"/>
<stop offset="1" stop-color="#C31162"/>
</linearGradient>
<linearGradient id="paint3_linear_747_1711" x1="14.2211" y1="0.33754" x2="33.192" y2="19.3085" gradientUnits="userSpaceOnUse">
<stop stop-color="#32A071"/>
<stop offset="0.069" stop-color="#2DA771"/>
<stop offset="0.476" stop-color="#15CF74"/>
<stop offset="0.801" stop-color="#06E775"/>
<stop offset="1" stop-color="#00F076"/>
</linearGradient>
</defs>
</svg>
