<svg width="1113" height="1112" viewBox="0 0 1113 1112" fill="none" xmlns="http://www.w3.org/2000/svg">
<path d="M947.874 164.149C896.538 112.304 835.463 71.1143 768.162 42.9445C700.855 14.7753 628.649 0.181219 555.688 0.00167708C482.729 -0.177865 410.451 14.0601 343.01 41.8983C275.568 69.7364 214.292 110.625 162.701 162.216C111.109 213.808 70.2208 275.084 42.3826 342.525C14.5445 409.967 0.30651 482.244 0.486052 555.206C0.665594 628.167 15.2596 700.373 43.4288 767.674C71.5987 834.981 112.789 896.056 164.633 947.393C215.97 999.235 277.044 1040.43 344.348 1068.59C411.651 1096.77 483.858 1111.36 556.82 1111.54C629.781 1111.72 702.054 1097.48 769.495 1069.64C836.942 1041.8 898.217 1000.91 949.804 949.322C1001.4 897.729 1042.29 836.454 1070.13 769.013C1097.97 701.572 1112.2 629.293 1112.02 556.332C1111.84 483.373 1097.25 411.167 1069.08 343.864C1040.91 276.56 999.716 215.486 947.874 164.149ZM81.5325 555.772C81.5149 513.754 87.0855 471.923 98.0979 431.378C116.246 470.443 142.603 504.193 160.529 544.275C183.696 595.801 245.905 581.51 273.374 626.658C297.753 666.735 271.717 717.421 289.964 759.354C303.217 789.791 334.47 796.443 356.03 818.695C378.06 841.146 377.59 871.906 380.953 901.18C384.747 935.573 390.902 969.668 399.373 1003.22C399.373 1003.46 399.373 1003.74 399.571 1003.99C214.553 939.006 81.5325 762.647 81.5325 555.772ZM556.254 1030.49C529.742 1030.48 503.277 1028.27 477.134 1023.87C477.406 1017.16 477.529 1010.91 478.197 1006.56C484.204 967.246 503.886 928.799 530.44 899.373C556.674 870.348 592.625 850.714 614.778 817.782C636.488 785.641 642.988 742.368 634.041 704.81C620.858 649.329 545.475 630.808 504.826 600.718C481.46 583.409 460.666 556.661 429.983 554.482C415.84 553.496 403.997 556.539 389.978 552.924C377.121 549.588 367.033 542.662 353.335 544.47C327.744 547.836 311.599 575.181 284.105 571.468C258.02 567.981 231.144 537.446 225.21 512.6C217.594 480.655 242.864 470.295 269.937 467.451C281.237 466.264 293.92 464.979 304.775 469.133C319.066 474.424 325.816 488.418 338.648 495.49C362.706 508.693 367.576 487.603 363.892 466.24C358.379 434.246 351.95 421.216 380.483 399.186C400.263 384.004 417.175 373.026 414.01 345.755C412.131 329.733 403.354 322.488 411.538 306.541C417.743 294.401 434.779 283.447 445.881 276.203C474.537 257.511 568.639 258.895 530.193 206.577C518.894 191.223 498.051 163.778 478.271 160.02C453.546 155.347 442.568 182.94 425.334 195.105C407.532 207.69 372.868 221.981 355.041 202.523C331.058 176.339 370.939 167.759 379.766 149.462C383.846 140.932 379.766 129.089 372.893 117.938C381.81 114.179 390.876 110.693 400.09 107.479C405.865 111.744 412.715 114.313 419.87 114.896C436.411 115.985 452.013 107.034 466.452 118.309C482.474 130.671 494.021 146.297 515.284 150.155C535.853 153.888 557.635 141.896 562.729 120.83C565.821 108.023 562.729 94.4986 559.766 81.2703C652.239 81.8028 742.515 109.496 819.377 160.91C814.435 159.031 808.526 159.254 801.228 162.641C786.22 169.614 764.961 187.366 763.202 204.97C761.2 224.948 790.675 227.767 804.667 227.767C825.682 227.767 846.972 218.371 840.198 194.091C837.252 183.558 833.248 172.605 826.796 165.979C842.31 176.743 857.166 188.417 871.298 200.94C871.079 201.162 870.854 201.36 870.635 201.607C856.393 216.442 839.851 228.187 830.107 246.236C823.236 258.945 815.494 264.978 801.575 268.266C793.913 270.071 785.161 270.739 778.728 275.882C760.828 289.975 771.017 323.848 787.979 334.01C809.414 346.843 841.208 340.81 857.379 322.488C870.014 308.148 877.458 283.25 900.177 283.275C910.183 283.254 919.793 287.17 926.932 294.178C936.329 303.92 934.473 313.019 936.475 325.183C940.011 346.793 959.073 335.073 970.673 324.169C979.121 339.213 986.747 354.706 993.515 370.579C980.758 388.949 970.619 408.977 939.938 387.565C921.564 374.733 910.268 356.115 887.201 350.329C867.05 345.384 846.4 350.527 826.498 353.964C803.876 357.895 777.048 359.626 759.891 376.76C743.3 393.276 734.524 415.38 716.868 431.971C682.724 464.114 668.306 499.199 690.411 544.64C711.676 588.333 756.154 612.045 804.15 608.929C851.299 605.788 900.281 578.443 898.917 646.955C898.424 671.208 903.494 688 910.938 710.525C917.833 731.291 917.365 751.418 918.947 772.853C920.45 797.959 924.376 822.857 930.663 847.202C886.349 904.266 829.578 950.442 764.687 982.206C699.796 1013.97 628.503 1030.49 556.254 1030.49Z" fill="#008FA0"/>
</svg>
