<svg width="249" height="19" viewBox="0 0 249 19" fill="none" xmlns="http://www.w3.org/2000/svg">
<path id="Vector" d="M245.887 0C239.343 0 236.018 4.0882 233.346 7.37395C230.708 10.6156 229.048 12.45 225.632 12.45C222.215 12.45 220.559 10.6156 217.921 7.37395C215.249 4.0882 211.924 0 205.379 0C198.838 0 195.513 4.08972 192.841 7.37547C190.209 10.6156 188.549 12.45 185.139 12.45C181.732 12.45 180.075 10.6156 177.443 7.37547C174.774 4.08972 171.452 0 164.914 0C158.376 0 155.054 4.0882 152.382 7.37395C149.75 10.6156 148.093 12.45 144.68 12.45C141.272 12.45 139.616 10.6172 136.983 7.37547C134.315 4.08972 130.992 0 124.451 0C117.913 0 114.591 4.0882 111.922 7.37395C109.29 10.6156 107.634 12.45 104.223 12.45C100.816 12.45 99.1593 10.6172 96.527 7.37547C93.8583 4.08972 90.5361 0 83.9949 0C77.4569 0 74.1377 4.08972 71.469 7.37547C68.8367 10.6156 67.1832 12.45 63.7759 12.45C60.3716 12.45 58.715 10.6156 56.0858 7.37547C53.4201 4.08972 50.1009 0 43.5659 0C37.0248 0 33.7025 4.08972 31.0338 7.37547C28.4016 10.6172 26.745 12.45 23.3377 12.45C19.9303 12.45 18.2738 10.6156 15.6415 7.37547C12.9728 4.08972 9.65057 0 3.1125 0C1.39211 0 0 1.39363 0 3.1125C0 4.83137 1.39211 6.225 3.1125 6.225C6.51984 6.225 8.17639 8.05937 10.8086 11.2995C13.4774 14.5853 16.7996 18.675 23.3377 18.675C29.8757 18.675 33.198 14.5868 35.8667 11.301C38.499 8.05937 40.1555 6.225 43.5659 6.225C46.9702 6.225 48.6237 8.05785 51.2529 11.298C53.9186 14.5853 57.2408 18.675 63.7759 18.675C70.3139 18.675 73.6331 14.5853 76.3018 11.2995C78.9341 8.05937 80.5876 6.225 83.9949 6.225C87.4053 6.225 89.0619 8.05937 91.6941 11.301C94.3629 14.5868 97.6851 18.675 104.223 18.675C110.764 18.675 114.086 14.5853 116.755 11.2995C119.387 8.05785 121.044 6.225 124.451 6.225C127.862 6.225 129.518 8.05937 132.151 11.301C134.819 14.5868 138.141 18.675 144.68 18.675C151.221 18.675 154.543 14.5853 157.215 11.2995C159.847 8.05937 161.503 6.225 164.914 6.225C168.321 6.225 169.978 8.05937 172.61 11.2995C175.279 14.5853 178.601 18.675 185.139 18.675C191.68 18.675 195.002 14.5868 197.674 11.301C200.309 8.05937 201.966 6.225 205.379 6.225C208.796 6.225 210.455 8.05937 213.094 11.3026C215.766 14.5868 219.091 18.675 225.632 18.675C232.176 18.675 235.501 14.5868 238.173 11.301C240.811 8.05937 242.471 6.225 245.887 6.225C247.608 6.225 249 4.83137 249 3.1125C249 1.39363 247.608 0 245.887 0Z" fill="#00E4FF"/>
</svg>
